HIERARCHY
ROOT Hips
{
	OFFSET 0.00000 0.00000 0.00000
	CHANNELS 6 Xposition Yposition Zposition Zrotation Yrotation Xrotation 
	JOINT LHipJoint
	{
		OFFSET 0 0 0
		CHANNELS 3 Zrotation Yrotation Xrotation
		JOINT LeftHip
		{
			OFFSET 1.57358 -1.76629 0.73362
			CHANNELS 3 Zrotation Yrotation Xrotation
			JOINT LeftKnee
			{
				OFFSET 2.40600 -6.61045 0.00000
				CHANNELS 3 Zrotation Yrotation Xrotation
				JOINT LeftAnkle
				{
					OFFSET 2.66168 -7.31291 0.00000
					CHANNELS 3 Zrotation Yrotation Xrotation
					JOINT LeftToe
					{
						OFFSET 0.20870 -0.57341 2.12506
						CHANNELS 3 Zrotation Yrotation Xrotation
						End Site
						{
							OFFSET 0.00000 -0.00000 1.10557
						}
					}
				}
			}
		}
	}
	JOINT RHipJoint
	{
		OFFSET 0 0 0
		CHANNELS 3 Zrotation Yrotation Xrotation
		JOINT RightHip
		{
			OFFSET -1.49299 -1.76629 0.73362
			CHANNELS 3 Zrotation Yrotation Xrotation
			JOINT RightKnee
			{
				OFFSET -2.43663 -6.69460 0.00000
				CHANNELS 3 Zrotation Yrotation Xrotation
				JOINT RightAnkle
				{
					OFFSET -2.62959 -7.22474 0.00000
					CHANNELS 3 Zrotation Yrotation Xrotation
					JOINT RightToe
					{
						OFFSET -0.25784 -0.70841 2.21862
						CHANNELS 3 Zrotation Yrotation Xrotation
						End Site
						{
							OFFSET -0.00000 -0.00000 1.16452
						}
					}
				}
			}
		}
	}
	JOINT lowerback
	{
		OFFSET 0 0 0
		CHANNELS 3 Zrotation Yrotation Xrotation
		JOINT Chest
		{
			OFFSET -0.00034 2.12399 -0.25450
			CHANNELS 3 Zrotation Yrotation Xrotation
			JOINT Chest2
			{
				OFFSET 0.05594 2.14379 -0.03318
				CHANNELS 3 Zrotation Yrotation Xrotation
				JOINT lowerneck
				{
					OFFSET 0 0 0
					CHANNELS 3 Zrotation Yrotation Xrotation
					JOINT Neck
					{
						OFFSET -0.09835 1.62725 0.24211
						CHANNELS 3 Zrotation Yrotation Xrotation
						JOINT Head
						{
							OFFSET 0.10849 1.66041 -0.22648
							CHANNELS 3 Zrotation Yrotation Xrotation
							End Site
							{
								OFFSET 0.04385 1.68267 -0.10541
							}
						}
					}
				}
				JOINT LeftCollar
				{
					OFFSET 0 0 0
					CHANNELS 3 Zrotation Yrotation Xrotation
					JOINT LeftShoulder
					{
						OFFSET 3.29108 0.79398 -0.68179
CHANNELS 3 Zrotation Xrotation Yrotation
						JOINT LeftElbow
						{
OFFSET 0 -5.153100 -0.000000
CHANNELS 3 Zrotation Xrotation Yrotation
							JOINT LeftWrist
							{
OFFSET 0 -3.751380 -0.000000
CHANNELS 3 Zrotation Xrotation Yrotation
								JOINT lhand
								{
									OFFSET 0 0 0
CHANNELS 3 Zrotation Xrotation Yrotation
									JOINT LFingers
									{
OFFSET 0 -0.529170 0.000000
CHANNELS 3 Zrotation Xrotation Yrotation
										End Site
										{
OFFSET 0 -0.426630 0.000000
										}
									}
								}
								JOINT LThumb
								{
OFFSET 0 0.000000 0.000000
CHANNELS 3 Zrotation Xrotation Yrotation
									End Site
									{
OFFSET 0 -0.433150 0.433150
									}
								}
							}
						}
					}
				}
				JOINT RightCollar
				{
					OFFSET 0 0 0
					CHANNELS 3 Zrotation Yrotation Xrotation
					JOINT RightShoulder
					{
						OFFSET -3.07414 1.06285 -0.44338
CHANNELS 3 Zrotation Xrotation Yrotation
						JOINT RightElbow
						{
OFFSET 0 -5.296130 0.000000
CHANNELS 3 Zrotation Xrotation Yrotation
							JOINT RightWrist
							{
OFFSET 0 -3.761440 -0.000000
CHANNELS 3 Zrotation Xrotation Yrotation
								JOINT rhand
								{
									OFFSET 0 0 0
CHANNELS 3 Zrotation Xrotation Yrotation
									JOINT RFingers
									{
OFFSET 0 -0.747320 0.000000
CHANNELS 3 Zrotation Xrotation Yrotation
										End Site
										{
OFFSET 0 -0.602510 0.000000
										}
									}
								}
								JOINT RThumb
								{
OFFSET 0 0.000000 0.000000
CHANNELS 3 Zrotation Xrotation Yrotation
									End Site
									{
OFFSET 0 -0.611710 0.611710
									}
								}
							}
						}
					}
				}
			}
		}
	}
}
MOTION
Frames: 4
Frame Time: 0.008333333333333333
-0.366177 16.724469 11.542896 3.327965 0.001891 4.921710 0.000000 0.000000 0.000000 -28.325396 -6.787973 -14.141798 5.519227 13.945229 43.019433 1.370036 -2.480251 -21.455607 0.543906 -4.717668 -13.106439 0.000000 0.000000 0.000000 9.170095 -1.758469 -24.854099 -25.999233 -19.114275 107.793245 -0.323721 -6.364046 10.396242 -0.262673 -3.288044 9.082509 -4.895355 0.443974 10.106585 0.537609 0.032612 -0.561385 3.322100 0.187316 -6.279237 -9.443652 -4.900109 -21.936391 10.289350 -5.797063 14.413344 4.259829 -2.190078 8.687082 0.000000 0.000000 0.000000 2.108715 9.616329 -40.472320 122.350316 -55.647822 87.606518 14.929756 -24.860838 -6.650696 0.000000 0.000000 0.000000 -7.125000 0.000000 0.000000 -9.978860 36.699243 -2.062767 0.000000 0.000000 0.000000 -4.184490 28.032401 36.166481 -115.241723 -57.449865 -81.672809 -13.942251 -12.839584 -26.160742 0.000000 0.000000 0.000000 7.125000 0.000000 0.000000 9.578223 3.455967 9.113953
-0.365931 16.732008 11.668887 3.391095 -0.054326 4.961530 0.000000 0.000000 0.000000 -28.454989 -6.602319 -13.621994 5.470280 13.893687 42.815100 1.357307 -2.485553 -21.350622 0.589319 -4.899004 -13.623916 0.000000 0.000000 0.000000 9.047884 -1.715607 -25.594096 -26.012499 -19.110226 107.833736 -0.306563 -6.197139 10.107527 -0.237819 -3.116931 8.606127 -4.958865 0.409322 10.045155 0.553626 -0.017364 -0.586954 3.382299 0.165348 -6.266911 -9.425755 -4.869327 -21.930373 10.193850 -5.742389 14.429831 4.231687 -2.173434 8.681646 0.000000 0.000000 0.000000 2.039545 9.216387 -40.498561 122.800547 -55.510467 87.977155 14.779067 -25.076513 -6.629287 0.000000 0.000000 0.000000 -7.125000 0.000000 0.000000 -10.100780 36.668730 -2.096502 0.000000 0.000000 0.000000 -4.147869 28.381204 36.023443 -115.352368 -57.425996 -81.766028 -13.850352 -12.935151 -26.247227 0.000000 0.000000 0.000000 7.125000 0.000000 0.000000 9.638870 3.382300 9.186859
-0.365685 16.739547 11.794878 3.454225 -0.110543 5.001349 0.000000 0.000000 0.000000 -28.584582 -6.416666 -13.102191 5.421333 13.842145 42.610767 1.344578 -2.490855 -21.245637 0.634731 -5.080341 -14.141393 0.000000 0.000000 0.000000 8.925673 -1.672745 -26.334094 -26.025764 -19.106177 107.874227 -0.289404 -6.030232 9.818812 -0.212966 -2.945818 8.129744 -5.022375 0.374670 9.983726 0.569643 -0.067340 -0.612524 3.442498 0.143380 -6.254584 -9.407859 -4.838545 -21.924356 10.098350 -5.687716 14.446318 4.203544 -2.156791 8.676210 0.000000 0.000000 0.000000 1.970375 8.816445 -40.524802 123.250778 -55.373111 88.347791 14.628379 -25.292188 -6.607878 0.000000 0.000000 0.000000 -7.125000 0.000000 0.000000 -10.222700 36.638216 -2.130237 0.000000 0.000000 0.000000 -4.111248 28.730007 35.880406 -115.463013 -57.402126 -81.859246 -13.758454 -13.030718 -26.333712 0.000000 0.000000 0.000000 7.125000 0.000000 0.000000 9.699517 3.308634 9.259765
-0.365439 16.747086 11.920870 3.517355 -0.166761 5.041169 0.000000 0.000000 0.000000 -28.714175 -6.231012 -12.582387 5.372386 13.790603 42.406434 1.331849 -2.496156 -21.140651 0.680143 -5.261677 -14.658870 0.000000 0.000000 0.000000 8.803463 -1.629883 -27.074092 -26.039030 -19.102128 107.914718 -0.272246 -5.863325 9.530097 -0.188112 -2.774705 7.653362 -5.085886 0.340018 9.922296 0.585661 -0.117316 -0.638094 3.502698 0.121412 -6.242258 -9.389962 -4.807763 -21.918338 10.002849 -5.633042 14.462805 4.175402 -2.140147 8.670774 0.000000 0.000000 0.000000 1.901205 8.416503 -40.551043 123.701009 -55.235755 88.718427 14.477690 -25.507863 -6.586470 0.000000 0.000000 0.000000 -7.125000 0.000000 0.000000 -10.344620 36.607703 -2.163972 0.000000 0.000000 0.000000 -4.074628 29.078809 35.737368 -115.573658 -57.378257 -81.952464 -13.666555 -13.126285 -26.420197 0.000000 0.000000 0.000000 7.125000 0.000000 0.000000 9.760164 3.234967 9.332670
